# Rhino

mtllib step.mtl
g __
o object_1
usemtl Glass__1_
v 27 1.5 -13.44999980926514
v 27 1.5 -13.39999961853027
v 30 1.5 -13.44999980926514
v 30 1.5 -13.39999961853027
v 30 3.5 -13.44999980926514
v 30 3.5 -13.39999961853027
v 27 3.5 -13.44999980926514
v 27 3.5 -13.39999961853027
vt 0 0
vt 0 0.5061725974082947
vt 0.3333333432674408 0
vt 0.3333333432674408 0.5061725974082947
vt 0.3333333432674408 0
vt 0.3333333432674408 0.5061725974082947
vt 0.5 0
vt 0.5 0.5061725974082947
vt 0.5 0
vt 0.5 0.5061725974082947
vt 0.8333333134651184 0
vt 0.8333333134651184 0.5061725974082947
vt 0.8333333134651184 0
vt 0.8333333134651184 0.5061725974082947
vt 1 0
vt 1 0.5061725974082947
vt 0 1
vt 0.300000011920929 1
vt 0.300000011920929 0.5061730742454529
vt 0 0.5061730742454529
vt 0.699999988079071 0.5061730742454529
vt 1 0.5061730742454529
vt 1 1
vt 0.699999988079071 1
vn 0 -1 0
vn 0 -1 0
vn 0 -1 0
vn 0 -1 0
vn 1 0 0
vn 1 0 0
vn 1 0 0
vn 1 0 0
vn 0 1 0
vn 0 1 0
vn 0 1 0
vn 0 1 0
vn -1 0 0
vn -1 0 0
vn -1 0 0
vn -1 0 0
vn 0 0 -1
vn 0 0 -1
vn 0 0 -1
vn 0 0 -1
vn 0 0 1
vn 0 0 1
vn 0 0 1
vn 0 0 1
f 1/1/1 3/3/3 4/4/4 2/2/2
f 3/5/5 5/7/7 6/8/8 4/6/6
f 5/9/9 7/11/11 8/12/12 6/10/10
f 7/13/13 1/15/15 2/16/16 8/14/14
f 3/18/18 1/17/17 7/20/20
f 7/20/20 5/19/19 3/18/18
f 4/22/22 8/24/24 2/21/21
f 8/24/24 4/22/22 6/23/23
o object_2
usemtl diffuse_Black
v 26.5 1.399999976158142 -8.694016456604004
v 26.5 0.5 -8.694016456604004
v 26.39999961853027 1.399999976158142 -8.694016456604004
v 26.39999961853027 0.5 -8.694016456604004
v 26.39999961853027 1.399999976158142 -8.537302970886231
v 26.39999961853027 0.5 -8.537302970886231
v 26.5 1.399999976158142 -8.537302970886231
v 26.5 0.5 -8.537302970886231
v 26.5 1.399999976158142 -8.200730323791504
v 26.5 0.5 -8.200730323791504
v 26.39999961853027 1.399999976158142 -8.200730323791504
v 26.39999961853027 0.5 -8.200730323791504
v 26.39999961853027 1.399999976158142 -8.044016838073731
v 26.39999961853027 0.5 -8.044016838073731
v 26.5 1.399999976158142 -8.044016838073731
v 26.5 0.5 -8.044016838073731
v 26.60000038146973 1.399999976158142 -7.744016647338867
v 26.60000038146973 1.399999976158142 -8.994016647338867
v 26.60000038146973 0.5 -7.744016647338867
v 26.60000038146973 0.5 -8.994016647338867
v 26.5 1.399999976158142 -8.994016647338867
v 26.5 0.5 -8.994016647338867
v 26.5 1.399999976158142 -7.744016647338867
v 26.5 0.5 -7.744016647338867
v 27.54999923706055 1.399999976158142 -8.694016456604004
v 27.54999923706055 0.5 -8.694016456604004
v 27.64999961853027 1.399999976158142 -8.694016456604004
v 27.64999961853027 0.5 -8.694016456604004
v 27.64999961853027 1.399999976158142 -8.537302970886231
v 27.64999961853027 0.5 -8.537302970886231
v 27.54999923706055 1.399999976158142 -8.537302970886231
v 27.54999923706055 0.5 -8.537302970886231
v 27.54999923706055 1.399999976158142 -8.200730323791504
v 27.54999923706055 0.5 -8.200730323791504
v 27.64999961853027 1.399999976158142 -8.200730323791504
v 27.64999961853027 0.5 -8.200730323791504
v 27.64999961853027 1.399999976158142 -8.044016838073731
v 27.64999961853027 0.5 -8.044016838073731
v 27.54999923706055 1.399999976158142 -8.044016838073731
v 27.54999923706055 0.5 -8.044016838073731
v 27.45000076293945 1.399999976158142 -7.744016647338867
v 27.45000076293945 1.399999976158142 -8.994016647338867
v 27.45000076293945 0.5 -7.744016647338867
v 27.45000076293945 0.5 -8.994016647338867
v 27.54999923706055 1.399999976158142 -8.994016647338867
v 27.54999923706055 0.5 -8.994016647338867
v 27.54999923706055 1.399999976158142 -7.744016647338867
v 27.54999923706055 0.5 -7.744016647338867
v 27.64999961853027 1.399999976158142 -7.744016647338867
v 26.39999961853027 1.5 -7.744016647338867
v 26.39999961853027 1.5 -8.994016647338867
v 27.64999961853027 1.5 -7.744016647338867
v 27.64999961853027 1.5 -8.994016647338867
v 27.64999961853027 1.399999976158142 -8.994016647338867
v 26.39999961853027 1.399999976158142 -7.744016647338867
v 26.39999961853027 1.399999976158142 -8.994016647338867
vt 0.3452380895614624 0.7202380895614624
vt 0.3452380895614624 0.9345238208770752
vt 0.367582768201828 0.7202380895614624
vt 0.367582768201828 0.9345238208770752
vt 0.3214285671710968 0.7202380895614624
vt 0.3214285671710968 0.9345238208770752
vt 0.3437732458114624 0.7202380895614624
vt 0.3437732458114624 0.9345238208770752
vt 0.3928571343421936 0.7202380895614624
vt 0.3928571343421936 0.9345238208770752
vt 0.4152018129825592 0.7202380895614624
vt 0.4152018129825592 0.9345238208770752
vt 0.369047611951828 0.7202380895614624
vt 0.369047611951828 0.9345238208770752
vt 0.3913922905921936 0.7202380895614624
vt 0.3913922905921936 0.9345238208770752
vt 0.2976190447807312 0
vt 0 0
vt 0.2976190447807312 0.2142857164144516
vt 0 0.2142857164144516
vt 0.4588139653205872 0.4761904776096344
vt 0.3873853981494904 0.4761904776096344
vt 0.3873853981494904 0.6890113353729248
vt 0.4588139653205872 0.6890113353729248
vt 0 0.911309540271759
vt 0 0.9827380776405335
vt 0.2142857164144516 0.911309540271759
vt 0.2142857164144516 0.9827380776405335
vt 0.6579980850219727 0.4761904776096344
vt 0.5778616070747376 0.4761904776096344
vt 0.6579980850219727 0.6890113353729248
vt 0.5778616070747376 0.6890113353729248
vt 0.724725604057312 0.494047611951828
vt 0.724725604057312 0.7916666865348816
vt 0.7016485333442688 0.7202380895614624
vt 0.6785714030265808 0.7202380895614624
vt 0.6785714030265808 0.6829254031181335
vt 0.7016485333442688 0.6829254031181335
vt 0.7016485333442688 0.6027889251708984
vt 0.6785714030265808 0.6027889251708984
vt 0.6785714030265808 0.5654761791229248
vt 0.7016485333442688 0.5654761791229248
vt 0.7016485333442688 0.494047611951828
vt 0.7016485333442688 0.7916666865348816
vt 0.4404761791229248 0.6904761791229248
vt 0.4404761791229248 0.9047619104385376
vt 0.4628208577632904 0.6904761791229248
vt 0.4628208577632904 0.9047619104385376
vt 0.4166666567325592 0.6904761791229248
vt 0.4166666567325592 0.9047619104385376
vt 0.4390113353729248 0.6904761791229248
vt 0.4390113353729248 0.9047619104385376
vt 0.2142857164144516 0.7577381134033203
vt 0 0.7577381134033203
vt 0.2142857164144516 0.7815476059913635
vt 0 0.7815476059913635
vt 0.2142857164144516 0.7321428656578064
vt 0 0.7321428656578064
vt 0.2142857164144516 0.7559523582458496
vt 0 0.7559523582458496
vt 0.4642857015132904 0.6904761791229248
vt 0.4642857015132904 0.986630380153656
vt 0.6771065592765808 0.6904761791229248
vt 0.6771065592765808 0.986630380153656
vt 0 0.8345237970352173
vt 0 0.9059523940086365
vt 0.2142857164144516 0.9059523940086365
vt 0.2142857164144516 0.8345237970352173
vt 0.7961542010307312 0.494047611951828
vt 0.726190447807312 0.494047611951828
vt 0.7961542010307312 0.7083333134651184
vt 0.726190447807312 0.7083333134651184
vt 0.5572882294654846 0.4761904776096344
vt 0.4771517217159271 0.4761904776096344
vt 0.5572882294654846 0.6890113353729248
vt 0.4771517217159271 0.6890113353729248
vt 0 0.7833333611488342
vt 0.2961542010307312 0.7833333611488342
vt 0.2250771969556809 0.8071428537368774
vt 0.2250771969556809 0.8309524059295654
vt 0.1879481375217438 0.8309524059295654
vt 0.1879481375217438 0.8071428537368774
vt 0.1082060635089874 0.8071428537368774
vt 0.1082060635089874 0.8309524059295654
vt 0.07107700407505035 0.8309524059295654
vt 0.07107700407505035 0.8071428537368774
vt 0 0.8071428537368774
vt 0.2961542010307312 0.8071428537368774
vt 0.369047611951828 0.5297619104385376
vt 0.2976190447807312 0.5297619104385376
vt 0.369047611951828 0.5535714030265808
vt 0.2976190447807312 0.5535714030265808
vt 0.976190447807312 0
vt 0.6785714030265808 0
vt 0.976190447807312 0.2976190447807312
vt 0.6785714030265808 0.2976190447807312
vt 0.7976190447807312 0.494047611951828
vt 0.7976190447807312 0.7916666865348816
vt 0.99853515625 0.494047611951828
vt 0.99853515625 0.7916666865348816
vt 0.3777555525302887 0.7142857313156128
vt 0.2976190447807312 0.7142857313156128
vt 0.3777555525302887 0.6904761791229248
vt 0.2976190447807312 0.6904761791229248
vt 0.2976190447807312 0.4761904776096344
vt 0.369047611951828 0.5
vt 0.2976190447807312 0.5
vt 0.369047611951828 0.4761904776096344
vt 0.369047611951828 0.636904776096344
vt 0.2976190447807312 0.636904776096344
vt 0.369047611951828 0.6607142686843872
vt 0.2976190447807312 0.6607142686843872
vt 0.2976190447807312 0.7202380895614624
vt 0.2976190447807312 0.8003745675086975
vt 0.3199637234210968 0.8003745675086975
vt 0.3199637234210968 0.7202380895614624
vt 0.369047611951828 0.5833333134651184
vt 0.2976190447807312 0.5833333134651184
vt 0.2976190447807312 0.6071428656578064
vt 0.369047611951828 0.6071428656578064
vt 0.3392857015132904 0
vt 0.636904776096344 0
vt 0.4107142984867096 0.2366303950548172
vt 0.4107142984867096 0.02366304025053978
vt 0.4480269849300385 0.02366304025053978
vt 0.4480269849300385 0.2366303950548172
vt 0.528163492679596 0.2366303950548172
vt 0.528163492679596 0.02366304025053978
vt 0.5654761791229248 0.02366304025053978
vt 0.5654761791229248 0.2366303950548172
vt 0.636904776096344 0.02366304025053978
vt 0.3392857015132904 0.02366304025053978
vt 0 0.2255639135837555
vt 0.2976190447807312 0.2255639135837555
vt 0.0714285671710968 0.4636591374874115
vt 0.0714285671710968 0.2493734359741211
vt 0.1087412759661675 0.2493734359741211
vt 0.1087412759661675 0.4636591374874115
vt 0.1888777762651444 0.4636591374874115
vt 0.1888777762651444 0.2493734359741211
vt 0.2261904776096344 0.2493734359741211
vt 0.2261904776096344 0.4636591374874115
vt 0.2976190447807312 0.2493734359741211
vt 0 0.2493734359741211
vt 0.636904776096344 0.2380952388048172
vt 0.3392857015132904 0.2380952388048172
vt 0.5892857313156128 0.4747256338596344
vt 0.5892857313156128 0.2617582678794861
vt 0.613095223903656 0.4747256338596344
vt 0.613095223903656 0.2617582678794861
vt 0.386904776096344 0.2617582678794861
vt 0.386904776096344 0.4747256338596344
vt 0.363095223903656 0.4747256338596344
vt 0.363095223903656 0.2617582678794861
vt 0.636904776096344 0.2617582678794861
vt 0.3392857015132904 0.2617582678794861
vt 0.2961542010307312 0.7142857313156128
vt 0 0.7142857313156128
vt 0.248769536614418 0.4761904776096344
vt 0.272461861371994 0.4761904776096344
vt 0.248769536614418 0.6904761791229248
vt 0.272461861371994 0.6904761791229248
vt 0.02369233220815659 0.4761904776096344
vt 0.04738467931747437 0.4761904776096344
vt 0.04738467931747437 0.6904761791229248
vt 0.02369233220815659 0.6904761791229248
vt 0 0.6904761791229248
vt 0.2961542010307312 0.6904761791229248
vn 0 0 -1
vn 0 0 -1
vn 0 0 -1
vn 0 0 -1
vn 0 0 1
vn 0 0 1
vn 0 0 1
vn 0 0 1
vn 0 0 -1
vn 0 0 -1
vn 0 0 -1
vn 0 0 -1
vn 0 0 1
vn 0 0 1
vn 0 0 1
vn 0 0 1
vn 1 0 0
vn 1 0 0
vn 1 0 0
vn 1 0 0
vn -1 0 0
vn -1 0 0
vn -1 0 0
vn -1 0 0
vn -1 0 0
vn -1 0 0
vn -1 0 0
vn -1 0 0
vn -1 0 0
vn -1 0 0
vn -1 0 0
vn -1 0 0
vn 0 -1 0
vn 0 -1 0
vn 0 -1 0
vn 0 -1 0
vn 0 -1 0
vn 0 -1 0
vn 0 -1 0
vn 0 -1 0
vn 0 -1 0
vn 0 -1 0
vn 0 -1 0
vn 0 -1 0
vn 0 0 -1
vn 0 0 -1
vn 0 0 -1
vn 0 0 -1
vn 0 0 1
vn 0 0 1
vn 0 0 1
vn 0 0 1
vn 0 0 -1
vn 0 0 -1
vn 0 0 -1
vn 0 0 -1
vn 0 0 1
vn 0 0 1
vn 0 0 1
vn 0 0 1
vn -1 0 0
vn -1 0 0
vn -1 0 0
vn -1 0 0
vn 1 0 0
vn 1 0 0
vn 1 0 0
vn 1 0 0
vn 1 0 0
vn 1 0 0
vn 1 0 0
vn 1 0 0
vn 1 0 0
vn 1 0 0
vn 1 0 0
vn 1 0 0
vn 0 -1 0
vn 0 -1 0
vn 0 -1 0
vn 0 -1 0
vn 0 -1 0
vn 0 -1 0
vn 0 -1 0
vn 0 -1 0
vn 0 -1 0
vn 0 -1 0
vn 0 -1 0
vn 0 -1 0
vn 0 -1 0
vn 0 -1 0
vn 0 -1 0
vn 0 -1 0
vn 0 1 0
vn 0 1 0
vn 0 1 0
vn 0 1 0
vn 0 -1 0
vn 0 -1 0
vn 0 -1 0
vn 0 -1 0
vn 0 -1 0
vn 0 -1 0
vn 0 -1 0
vn 0 -1 0
vn 0 -1 0
vn 0 -1 0
vn 0 -1 0
vn 0 -1 0
vn 0 -1 0
vn 0 -1 0
vn 0 -1 0
vn 0 -1 0
vn 0 -1 0
vn 0 -1 0
vn 0 -1 0
vn 0 -1 0
vn 0 -1 0
vn 0 -1 0
vn 0 -1 0
vn 0 -1 0
vn -1 0 0
vn -1 0 0
vn -1 0 0
vn -1 0 0
vn -1 0 0
vn -1 0 0
vn -1 0 0
vn -1 0 0
vn -1 0 0
vn -1 0 0
vn -1 0 0
vn -1 0 0
vn 1 0 0
vn 1 0 0
vn 1 0 0
vn 1 0 0
vn 1 0 0
vn 1 0 0
vn 1 0 0
vn 1 0 0
vn 1 0 0
vn 1 0 0
vn 1 0 0
vn 1 0 0
vn 0 0 1
vn 0 0 1
vn 0 0 1
vn 0 0 1
vn 0 0 1
vn 0 0 1
vn 0 0 1
vn 0 0 1
vn 0 0 1
vn 0 0 1
vn 0 0 1
vn 0 0 1
vn 0 0 -1
vn 0 0 -1
vn 0 0 -1
vn 0 0 -1
vn 0 0 -1
vn 0 0 -1
vn 0 0 -1
vn 0 0 -1
vn 0 0 -1
vn 0 0 -1
vn 0 0 -1
vn 0 0 -1
f 10/26/26 12/28/28 11/27/27 9/25/25
f 14/30/30 16/32/32 15/31/31 13/29/29
f 18/34/34 20/36/36 19/35/35 17/33/33
f 22/38/38 24/40/40 23/39/39 21/37/37
f 26/42/42 25/41/41 27/43/43 28/44/44
f 29/46/46 30/47/47 10/48/48 9/45/45
f 23/50/50 24/52/52 32/51/51 31/49/49
f 15/54/54 16/56/56 18/55/55 17/53/53
f 32/67/67 24/66/66 27/57/57
f 18/63/63 27/57/57 24/66/66
f 18/63/63 24/66/66 22/65/65 20/64/64
f 27/57/57 18/63/63 16/62/62 28/58/58
f 10/59/59 28/58/58 16/62/62
f 30/68/68 28/58/58 10/59/59
f 10/59/59 16/62/62 14/61/61 12/60/60
f 34/70/70 33/69/69 35/71/71 36/72/72
f 38/74/74 37/73/73 39/75/75 40/76/76
f 42/78/78 41/77/77 43/79/79 44/80/80
f 46/82/82 45/81/81 47/83/83 48/84/84
f 50/86/86 52/88/88 51/87/87 49/85/85
f 53/90/90 33/89/89 34/92/92 54/91/91
f 47/94/94 55/93/93 56/95/95 48/96/96
f 39/98/98 41/97/97 42/99/99 40/100/100
f 56/111/111 51/101/101 48/110/110
f 42/107/107 48/110/110 51/101/101
f 42/107/107 44/108/108 46/109/109 48/110/110
f 51/101/101 52/102/102 40/106/106 42/107/107
f 34/103/103 40/106/106 52/102/102
f 54/112/112 34/103/103 52/102/102
f 34/103/103 36/104/104 38/105/105 40/106/106
f 47/114/114 45/116/116 57/115/115 55/113/113
f 59/118/118 58/117/117 60/119/119 61/120/120
f 26/122/122 50/124/124 49/123/123 25/121/121
f 39/128/128 37/126/126 43/125/125 41/127/127
f 53/129/129 62/131/131 35/130/130 33/132/132
f 21/134/134 23/136/136 31/135/135 63/133/133
f 13/138/138 15/139/139 17/140/140 19/137/137
f 64/142/142 29/143/143 9/144/144 11/141/141
f 64/156/156 11/148/148 59/145/145
f 13/149/149 59/145/145 11/148/148
f 13/149/149 11/148/148 12/147/147 14/150/150
f 59/145/145 13/149/149 19/152/152 58/146/146
f 21/153/153 58/146/146 19/152/152
f 63/155/155 58/146/146 21/153/153
f 21/153/153 19/152/152 20/151/151 22/154/154
f 62/168/168 61/157/157 35/160/160
f 37/161/161 35/160/160 61/157/157
f 37/161/161 38/162/162 36/159/159 35/160/160
f 61/157/157 60/158/158 43/164/164 37/161/161
f 45/165/165 43/164/164 60/158/158
f 57/167/167 45/165/165 60/158/158
f 45/165/165 46/166/166 44/163/163 43/164/164
f 31/174/174 58/169/169 63/179/179
f 25/172/172 58/169/169 31/174/174
f 25/172/172 49/175/175 60/170/170 58/169/169
f 55/178/178 60/170/170 49/175/175
f 25/172/172 31/174/174 32/173/173 27/171/171
f 55/178/178 49/175/175 51/176/176 56/177/177
f 60/170/170 55/178/178 57/180/180
f 59/181/181 29/186/186 64/192/192
f 28/183/183 30/184/184 29/186/186 26/185/185
f 54/187/187 52/188/188 50/189/189 53/190/190
f 50/189/189 26/185/185 59/181/181 61/182/182
f 29/186/186 59/181/181 26/185/185
f 62/191/191 53/190/190 61/182/182
f 50/189/189 61/182/182 53/190/190
o object_3
usemtl Plaster
v 26.39999961853027 1.600000023841858 -7.903985500335693
v 26.39999961853027 1.600000023841858 -8.994016647338867
v 26.39999961853027 1.649999976158142 -8.994016647338867
v 26.39999961853027 1.649999976158142 -7.950145721435547
v 26.39999961853027 3.599999904632568 -7.744016647338867
v 26.39999961853027 3.603986501693726 -7.793857574462891
v 27.64999961853027 1.600000023841858 -7.903985500335693
v 27.64999961853027 1.600000023841858 -8.994016647338867
v 27.64999961853027 1.649999976158142 -8.994016647338867
v 27.64999961853027 1.649999976158142 -7.950145721435547
v 27.64999961853027 3.599999904632568 -7.744016647338867
v 27.64999961853027 3.603986501693726 -7.793857574462891
vt 0.6104009747505188 0.99360191822052
vt 0.3425398766994476 0.99360191822052
vt 0.3425398766994476 0.9812934994697571
vt 0.5990576148033142 0.9812934994697571
vt 0.6497111916542053 0.5012633800506592
vt 0.6374634504318237 0.5002819895744324
vt 0.295621395111084 0.99360191822052
vt 0.02776031568646431 0.99360191822052
vt 0.02776031568646431 0.9812934994697571
vt 0.2842780649662018 0.9812934994697571
vt 0.3349316120147705 0.5012633800506592
vt 0.3226838707923889 0.5002819895744324
vt 0.6357312798500061 0
vt 0.3271238505840302 0
vt 0.6357312798500061 0.4938839673995972
vt 0.3271238505840302 0.4938839673995972
vt 0.9613903164863586 0.4891840219497681
vt 0.6542477011680603 0.4891840219497681
vt 0.9613903164863586 0.7582974433898926
vt 0.6542477011680603 0.7582974433898926
vt 0.01234429702162743 0.4953488111495972
vt 0.01234429702162743 0.8039562106132507
vt 0.02322375029325485 0.4953488111495972
vt 0.02322375029325485 0.8039562106132507
vt 0.9613903164863586 0
vt 0.6542477011680603 0
vt 0.9613903164863586 0.2577170431613922
vt 0.6542477011680603 0.2577170431613922
vt 0.308607429265976 0
vt 0 0
vt 0.308607429265976 0.4839524328708649
vt 0 0.4839524328708649
vt 0 0.4953488111495972
vt 0 0.8039562106132507
vt 0.01087945327162743 0.4953488111495972
vt 0.01087945327162743 0.8039562106132507
vn -1 0 0
vn -1 0 0
vn -1 0 0
vn -1 0 0
vn -1 0 0
vn -1 0 0
vn 1 0 0
vn 1 0 0
vn 1 0 0
vn 1 0 0
vn 1 0 0
vn 1 0 0
vn 0 -0.07972966134548187 0.9968165159225464
vn 0 -0.07972966134548187 0.9968165159225464
vn 0 -0.07972966134548187 0.9968165159225464
vn 0 -0.07972966134548187 0.9968165159225464
vn 0 -1 0
vn 0 -1 0
vn 0 -1 0
vn 0 -1 0
vn 0 0 -1
vn 0 0 -1
vn 0 0 -1
vn 0 0 -1
vn 0 1 0
vn 0 1 0
vn 0 1 0
vn 0 1 0
vn 0 0.07972966134548187 -0.9968165159225464
vn 0 0.07972966134548187 -0.9968165159225464
vn 0 0.07972966134548187 -0.9968165159225464
vn 0 0.07972966134548187 -0.9968165159225464
vn 0 0.9968165159225464 0.07972966134548187
vn 0 0.9968165159225464 0.07972966134548187
vn 0 0.9968165159225464 0.07972966134548187
vn 0 0.9968165159225464 0.07972966134548187
f 68/196/196 69/197/197 70/198/198
f 65/193/193 69/197/197 68/196/196
f 67/195/195 66/194/194 65/193/193 68/196/196
f 74/202/202 76/204/204 75/203/203
f 71/199/199 74/202/202 75/203/203
f 73/201/201 74/202/202 71/199/199 72/200/200
f 75/206/206 69/205/205 65/207/207 71/208/208
f 71/210/210 65/209/209 66/211/211 72/212/212
f 72/214/214 66/213/213 67/215/215 73/216/216
f 73/218/218 67/217/217 68/219/219 74/220/220
f 74/222/222 68/221/221 70/223/223 76/224/224
f 76/226/226 70/225/225 69/227/227 75/228/228
o object_4
usemtl Plaster__2_
v 26.5 3.599999904632568 -7.744016647338867
v 27.54999923706055 3.599999904632568 -7.744016647338867
v 26.5 1.600000023841858 -7.856723785400391
v 27.54999923706055 1.600000023841858 -7.856723785400391
v 27.64999961853027 1.5 -8.994016647338867
v 27.64999961853027 1.600000023841858 -8.994016647338867
v 26.39999961853027 1.5 -8.994016647338867
v 26.39999961853027 1.600000023841858 -8.994016647338867
v 26.39999961853027 1.5 -7.744016647338867
v 27.64999961853027 1.5 -7.744016647338867
v 26.39999961853027 1.600000023841858 -7.903985500335693
v 27.64999961853027 1.600000023841858 -7.903985500335693
v 26.5 1.600000023841858 -7.903985500335693
v 27.54999923706055 1.600000023841858 -7.903985500335693
v 26.39999961853027 3.599999904632568 -7.744016647338867
v 26.39999961853027 1.600000023841858 -7.744016647338867
v 27.64999961853027 3.599999904632568 -7.744016647338867
v 27.64999961853027 1.600000023841858 -7.744016647338867
v 26.5 1.600000023841858 -7.744016647338867
v 27.54999923706055 1.600000023841858 -7.744016647338867
vt 0.3427426815032959 0.4278930723667145
vt 0.3427426815032959 0.6383563876152039
vt 0.7462397217750549 0.4278930723667145
vt 0.7462397217750549 0.6383563876152039
vt 0.04146720468997955 0.4278930723667145
vt 0.02274841256439686 0.4278930723667145
vt 0.04146720468997955 0.6801884770393372
vt 0.02274841256439686 0.6801884770393372
vt 0.99853515625 0.4155650138854981
vt 0.7477045655250549 0.4155650138854981
vt 0.99853515625 0.6678604483604431
vt 0.7477045655250549 0.6678604483604431
vt 0.7477045655250549 0
vt 0.7477045655250549 0.2200079709291458
vt 0.99853515625 0
vt 0.99853515625 0.2200079709291458
vt 0.7677710056304932 0
vt 0.9784687161445618 0
vt 0.3412778377532959 0.4278930723667145
vt 0.1225371062755585 0.4480766952037811
vt 0.09043560922145844 0.8517493605613709
vt 0.3412778377532959 0.4480766952037811
vt 0.09043560922145844 0.4278930723667145
vt 0.09043560922145844 0.4480766952037811
vt 0.626676619052887 0
vt 0.4066686630249023 0.02011453919112682
vt 0.3743811845779419 0.4224053025245667
vt 0.3743811845779419 0
vt 0.626676619052887 0.02011453919112682
vt 0.3743811845779419 0.02011453919112682
vt 0.2522954344749451 0
vt 0 0
vt 0.2522954344749451 0.4238563477993012
vt 0 0.4238563477993012
vt 0.2321117967367172 0.4036726951599121
vt 0.2321117967367172 0
vt 0.02018363028764725 0
vt 0.02018363028764725 0.4036726951599121
vt 0.2522954344749451 0.4036726951599121
vt 0 0.4036726951599121
vt 0.08696402609348297 0.4319297969341278
vt 0.06568045914173126 0.8356024622917175
vt 0.06568045914173126 0.4319297969341278
vt 0.06421561539173126 0.4319297969341278
vt 0.04293204843997955 0.8356024622917175
vt 0.04293204843997955 0.4319297969341278
vt 0.02128356881439686 0.4278930723667145
vt 0 0.4278930723667145
vt 0.02128356881439686 0.6398212313652039
vt 0 0.6398212313652039
vt 0.3427426815032959 0.6398212313652039
vt 0.3427426815032959 0.8906518220901489
vt 0.7462397217750549 0.6398212313652039
vt 0.7462397217750549 0.8906518220901489
vt 0.7462397217750549 0.6598876714706421
vt 0.7462397217750549 0.8705853819847107
vt 0.3427426815032959 0.8705853819847107
vt 0.3427426815032959 0.6598876714706421
vn 0 -0.05626433715224266 0.9984158873558044
vn 0 -0.05626433715224266 0.9984158873558044
vn 0 -0.05626433715224266 0.9984158873558044
vn 0 -0.05626433715224266 0.9984158873558044
vn 0 0 -1
vn 0 0 -1
vn 0 0 -1
vn 0 0 -1
vn 0 -1 0
vn 0 -1 0
vn 0 -1 0
vn 0 -1 0
vn 0 1 0
vn 0 1 0
vn 0 1 0
vn 0 1 0
vn 0 1 0
vn 0 1 0
vn -1 0 0
vn -1 0 0
vn -1 0 0
vn -1 0 0
vn -1 0 0
vn -1 0 0
vn 1 0 0
vn 1 0 0
vn 1 0 0
vn 1 0 0
vn 1 0 0
vn 1 0 0
vn 0 0 1
vn 0 0 1
vn 0 0 1
vn 0 0 1
vn 0 0 1
vn 0 0 1
vn 0 0 1
vn 0 0 1
vn 0 0 1
vn 0 0 1
vn 1 0 0
vn 1 0 0
vn 1 0 0
vn -1 0 0
vn -1 0 0
vn -1 0 0
vn 0 1 0
vn 0 1 0
vn 0 1 0
vn 0 1 0
vn 0 0.07972966134548187 -0.9968165159225464
vn 0 0.07972966134548187 -0.9968165159225464
vn 0 0.07972966134548187 -0.9968165159225464
vn 0 0.07972966134548187 -0.9968165159225464
vn 0 0.07972966134548187 -0.9968165159225464
vn 0 0.07972966134548187 -0.9968165159225464
vn 0 0.07972966134548187 -0.9968165159225464
vn 0 0.07972966134548187 -0.9968165159225464
f 78/230/230 77/229/229 79/231/231 80/232/232
f 82/234/234 81/233/233 83/235/235 84/236/236
f 83/238/238 81/240/240 86/239/239 85/237/237
f 84/242/242 87/241/241 89/245/245
f 89/245/245 90/246/246 82/244/244 84/242/242
f 82/244/244 90/246/246 88/243/243
f 87/248/248 85/251/251 92/252/252
f 87/248/248 92/252/252 91/249/249
f 84/250/250 83/247/247 85/251/251 87/248/248
f 88/254/254 94/258/258 86/256/256
f 88/254/254 93/255/255 94/258/258
f 82/257/257 88/254/254 86/256/256 81/253/253
f 77/264/264 91/259/259 92/267/267 95/263/263
f 93/260/260 78/265/265 96/266/266 94/268/268
f 85/261/261 86/262/262 96/266/266 95/263/263
f 92/267/267 85/261/261 95/263/263
f 94/268/268 96/266/266 86/262/262
f 77/270/270 95/271/271 79/269/269
f 78/273/273 80/272/272 96/274/274
f 79/276/276 95/275/275 96/277/277 80/278/278
f 89/286/286 87/279/279 91/281/281 77/283/283
f 88/280/280 90/285/285 78/284/284 93/282/282
f 90/285/285 89/286/286 77/283/283 78/284/284
